# xmcd
#
# Track frame offsets:
# 150
# 20593
# 46035
# 74114
# 119860
# 140655
#
# Disc length: 2441 seconds
#
# Revision: 0
# Processed by: cddbd v1.4PL0 Copyright (c) Steve Scherf et al.
# Submitted via: Audion 3.0.2 (http://www.panic.com/audion/)
#
DISCID=5e098706
DTITLE=The Swords Project - Entertainment is Over if you Want It
DYEAR=1900
DGENRE=
TTITLE0=City Life
TTITLE1=MD 11
TTITLE2=CocKtails and Shuttlecocks
TTITLE3=Audience of One
TTITLE4=Immigracion
TTITLE5=New Shapes
EXTD=
EXTT0=
EXTT1=
EXTT2=
EXTT3=
EXTT4=
EXTT5=
PLAYORDER=
